<svg width="416" height="411" viewBox="0 0 416 411" fill="none" xmlns="http://www.w3.org/2000/svg">
<path d="M18 93H398M170 186.75V280.5M246 186.75V280.5M56 93H360L329.98 359.625C328.951 368.801 324.528 377.28 317.559 383.438C310.589 389.596 301.563 393.001 292.208 393H123.792C114.437 393.001 105.411 389.596 98.4412 383.438C91.4717 377.28 87.049 368.801 86.02 359.625L56 93ZM119.555 39.5063C122.628 33.0744 127.491 27.6374 133.577 23.8296C139.663 20.0217 146.72 17.9999 153.926 18H262.074C269.283 17.9964 276.345 20.0165 282.434 23.8246C288.523 27.6326 293.389 33.0715 296.464 39.5063L322 93H94L119.555 39.5063V39.5063Z" stroke="black" stroke-width="36" stroke-linecap="round" stroke-linejoin="round"/>
</svg>
